<svg width="174" height="171" viewBox="0 0 174 171" fill="none" xmlns="http://www.w3.org/2000/svg">
<path d="M86.6667 0C38.8267 0 0 38.2136 0 85.2982C0 132.383 38.8267 170.596 86.6667 170.596C134.507 170.596 173.333 132.383 173.333 85.2982C173.333 38.2136 134.507 0 86.6667 0ZM86.6667 34.1193C103.393 34.1193 117 47.5111 117 63.9737C117 80.4362 103.393 93.8281 86.6667 93.8281C69.94 93.8281 56.3333 80.4362 56.3333 63.9737C56.3333 47.5111 69.94 34.1193 86.6667 34.1193ZM86.6667 153.537C69.0733 153.537 48.2733 146.542 33.4533 128.971C48.1 117.712 66.56 110.888 86.6667 110.888C106.773 110.888 125.233 117.712 139.88 128.971C125.06 146.542 104.26 153.537 86.6667 153.537Z" fill="#3460C1" fill-opacity="0.8"/>
</svg>
